<?xml version="1.0" encoding="UTF-8"?>
<svg xmlns="http://www.w3.org/2000/svg" version="1.1" width="120" height="120" viewBox="0 0 120 120"><rect x="0" y="0" width="120" height="120" fill="#ffffff"/><g transform="scale(3.636)"><g transform="translate(0,0)"><path fill-rule="evenodd" d="M9 0L9 1L8 1L8 2L9 2L9 3L8 3L8 4L10 4L10 7L11 7L11 4L12 4L12 5L13 5L13 6L12 6L12 9L13 9L13 6L14 6L14 7L15 7L15 8L14 8L14 9L18 9L18 10L17 10L17 11L19 11L19 12L20 12L20 11L19 11L19 10L21 10L21 9L20 9L20 8L23 8L23 10L22 10L22 11L21 11L21 12L22 12L22 13L18 13L18 12L16 12L16 10L11 10L11 11L10 11L10 9L11 9L11 8L6 8L6 9L7 9L7 10L5 10L5 8L0 8L0 9L2 9L2 10L0 10L0 13L2 13L2 15L0 15L0 18L1 18L1 17L2 17L2 19L4 19L4 20L5 20L5 21L4 21L4 22L2 22L2 20L1 20L1 19L0 19L0 20L1 20L1 21L0 21L0 25L1 25L1 22L2 22L2 24L3 24L3 25L4 25L4 24L6 24L6 25L7 25L7 24L6 24L6 23L7 23L7 22L6 22L6 23L4 23L4 22L5 22L5 21L8 21L8 20L9 20L9 22L8 22L8 23L10 23L10 18L11 18L11 21L12 21L12 22L13 22L13 23L12 23L12 25L13 25L13 24L14 24L14 25L15 25L15 27L14 27L14 28L15 28L15 29L12 29L12 27L13 27L13 26L9 26L9 25L10 25L10 24L8 24L8 27L9 27L9 28L8 28L8 33L10 33L10 32L11 32L11 31L10 31L10 30L9 30L9 29L10 29L10 28L11 28L11 29L12 29L12 30L13 30L13 31L12 31L12 33L13 33L13 32L14 32L14 33L16 33L16 31L18 31L18 30L21 30L21 31L19 31L19 33L20 33L20 32L22 32L22 33L26 33L26 31L27 31L27 33L28 33L28 32L29 32L29 33L30 33L30 32L31 32L31 33L32 33L32 32L31 32L31 31L32 31L32 30L30 30L30 31L27 31L27 30L29 30L29 28L31 28L31 27L32 27L32 26L33 26L33 24L32 24L32 26L31 26L31 25L30 25L30 24L31 24L31 23L32 23L32 22L33 22L33 21L32 21L32 20L31 20L31 19L32 19L32 18L33 18L33 17L32 17L32 16L31 16L31 15L32 15L32 14L33 14L33 13L31 13L31 15L30 15L30 16L31 16L31 19L30 19L30 17L29 17L29 16L28 16L28 15L29 15L29 14L28 14L28 15L27 15L27 16L28 16L28 17L29 17L29 19L30 19L30 20L31 20L31 23L30 23L30 21L29 21L29 20L27 20L27 21L26 21L26 19L27 19L27 17L26 17L26 15L25 15L25 14L24 14L24 13L26 13L26 14L27 14L27 13L30 13L30 12L31 12L31 11L32 11L32 10L33 10L33 9L32 9L32 8L31 8L31 9L30 9L30 8L29 8L29 9L30 9L30 10L29 10L29 11L28 11L28 10L27 10L27 9L28 9L28 8L27 8L27 9L26 9L26 8L24 8L24 7L25 7L25 5L24 5L24 4L25 4L25 2L23 2L23 1L24 1L24 0L23 0L23 1L22 1L22 2L21 2L21 0L18 0L18 1L15 1L15 0L13 0L13 1L11 1L11 2L10 2L10 0ZM13 1L13 2L12 2L12 4L13 4L13 5L14 5L14 6L15 6L15 7L16 7L16 8L18 8L18 9L19 9L19 8L20 8L20 6L21 6L21 7L22 7L22 6L21 6L21 5L23 5L23 7L24 7L24 5L23 5L23 4L24 4L24 3L23 3L23 4L22 4L22 3L21 3L21 2L20 2L20 1L19 1L19 2L17 2L17 3L15 3L15 4L14 4L14 2L15 2L15 1ZM10 3L10 4L11 4L11 3ZM17 3L17 6L16 6L16 5L15 5L15 6L16 6L16 7L17 7L17 6L18 6L18 7L19 7L19 6L18 6L18 5L21 5L21 4L20 4L20 3ZM8 5L8 7L9 7L9 5ZM8 9L8 12L7 12L7 11L6 11L6 12L5 12L5 10L4 10L4 11L3 11L3 10L2 10L2 12L3 12L3 13L4 13L4 12L5 12L5 15L4 15L4 14L3 14L3 16L5 16L5 15L6 15L6 16L7 16L7 17L6 17L6 18L4 18L4 17L3 17L3 18L4 18L4 19L6 19L6 20L7 20L7 19L9 19L9 18L8 18L8 14L9 14L9 17L11 17L11 18L13 18L13 19L12 19L12 21L14 21L14 22L17 22L17 24L15 24L15 23L14 23L14 24L15 24L15 25L17 25L17 24L18 24L18 25L19 25L19 23L20 23L20 22L19 22L19 23L18 23L18 22L17 22L17 20L18 20L18 21L20 21L20 20L21 20L21 21L22 21L22 20L21 20L21 18L19 18L19 19L18 19L18 17L20 17L20 14L17 14L17 13L15 13L15 11L12 11L12 13L11 13L11 12L10 12L10 13L9 13L9 9ZM23 10L23 13L22 13L22 14L21 14L21 15L22 15L22 14L23 14L23 15L24 15L24 14L23 14L23 13L24 13L24 12L25 12L25 11L26 11L26 13L27 13L27 11L26 11L26 10ZM30 10L30 11L29 11L29 12L30 12L30 11L31 11L31 10ZM6 12L6 13L7 13L7 14L6 14L6 15L7 15L7 14L8 14L8 13L7 13L7 12ZM13 12L13 13L12 13L12 14L13 14L13 15L12 15L12 17L14 17L14 18L15 18L15 19L14 19L14 20L17 20L17 18L15 18L15 17L18 17L18 16L19 16L19 15L18 15L18 16L17 16L17 14L15 14L15 13L14 13L14 12ZM10 13L10 14L11 14L11 13ZM13 13L13 14L14 14L14 15L13 15L13 16L14 16L14 17L15 17L15 16L14 16L14 15L15 15L15 14L14 14L14 13ZM21 16L21 17L22 17L22 19L23 19L23 21L24 21L24 22L21 22L21 23L22 23L22 24L20 24L20 26L16 26L16 27L15 27L15 28L19 28L19 29L20 29L20 27L21 27L21 26L24 26L24 24L25 24L25 23L24 23L24 22L25 22L25 21L24 21L24 19L25 19L25 18L26 18L26 17L25 17L25 16L23 16L23 17L22 17L22 16ZM23 17L23 18L24 18L24 17ZM6 18L6 19L7 19L7 18ZM27 21L27 22L26 22L26 23L27 23L27 24L29 24L29 21ZM3 23L3 24L4 24L4 23ZM23 23L23 24L22 24L22 25L23 25L23 24L24 24L24 23ZM25 25L25 28L28 28L28 25ZM29 25L29 26L30 26L30 27L31 27L31 26L30 26L30 25ZM26 26L26 27L27 27L27 26ZM21 28L21 29L22 29L22 30L24 30L24 31L23 31L23 32L25 32L25 31L26 31L26 30L27 30L27 29L26 29L26 30L24 30L24 28L23 28L23 29L22 29L22 28ZM9 31L9 32L10 32L10 31ZM14 31L14 32L15 32L15 31ZM0 0L0 7L7 7L7 0ZM1 1L1 6L6 6L6 1ZM2 2L2 5L5 5L5 2ZM26 0L26 7L33 7L33 0ZM27 1L27 6L32 6L32 1ZM28 2L28 5L31 5L31 2ZM0 26L0 33L7 33L7 26ZM1 27L1 32L6 32L6 27ZM2 28L2 31L5 31L5 28Z" fill="#000000"/></g></g></svg>
